<svg xmlns="http://www.w3.org/2000/svg" viewBox="0 0 240 280" role="img" aria-label="Compañero METLY · Saludo">
  <defs>
    <linearGradient id="m-body" x1="0" y1="0" x2="0" y2="1">
      <stop offset="0%" stop-color="#5840E6"></stop>
      <stop offset="100%" stop-color="#2A1050"></stop>
    </linearGradient>
    <linearGradient id="m-belly" x1="0" y1="0" x2="0" y2="1">
      <stop offset="0%" stop-color="#A594FF"></stop>
      <stop offset="100%" stop-color="#7B61FF"></stop>
    </linearGradient>
    <radialGradient id="m-core" cx="50%" cy="50%" r="50%">
      <stop offset="0%" stop-color="#FFFFFF"></stop>
      <stop offset="40%" stop-color="#6FF1FF"></stop>
      <stop offset="100%" stop-color="#00E6FF"></stop>
    </radialGradient>
    <radialGradient id="m-glow" cx="50%" cy="50%" r="50%">
      <stop offset="0%" stop-color="#00E6FF" stop-opacity="0.55"></stop>
      <stop offset="100%" stop-color="#00E6FF" stop-opacity="0"></stop>
    </radialGradient>
  </defs>

  <ellipse cx="120" cy="260" rx="60" ry="6" fill="#1A0033" opacity="0.18"></ellipse>

  <circle cx="120" cy="160" r="80" fill="url(#m-glow)"></circle>

  <g>
    <path d="M120 70&#xA;             C 170 70, 200 110, 200 160&#xA;             C 200 210, 170 240, 120 240&#xA;             C 70 240, 40 210, 40 160&#xA;             C 40 110, 70 70, 120 70 Z" fill="url(#m-body)"></path>

    <path d="M120 130&#xA;             C 150 130, 170 150, 170 175&#xA;             C 170 210, 145 230, 120 230&#xA;             C 95 230, 70 210, 70 175&#xA;             C 70 150, 90 130, 120 130 Z" fill="url(#m-belly)" opacity="0.55"></path>

    <g transform="translate(120,170)">
      <circle r="22" fill="#1A0033"></circle>
      <circle r="16" fill="url(#m-core)"></circle>
      <circle r="6" fill="#FFFFFF"></circle>
    </g>

    <g fill="#FAF8FF">
      <ellipse cx="100" cy="135" rx="6" ry="8"></ellipse>
      <ellipse cx="140" cy="135" rx="6" ry="8"></ellipse>
    </g>
    <g fill="#1A0033">
      <circle cx="101" cy="137" r="2.5"></circle>
      <circle cx="141" cy="137" r="2.5"></circle>
    </g>

    <path d="M105 152 Q120 160 135 152" stroke="#00E6FF" stroke-width="2.5" fill="none" stroke-linecap="round"></path>

    <g>
      <path d="M40 175&#xA;               C 20 165, 10 145, 18 130&#xA;               C 28 115, 50 120, 55 140 Z" fill="url(#m-body)"></path>
      <circle cx="20" cy="130" r="10" fill="url(#m-body)"></circle>
    </g>

    <g transform="translate(195,150)">
      <path d="M0 0&#xA;               C 18 -25, 45 -25, 50 -5&#xA;               C 55 15, 35 30, 18 22&#xA;               C 8 18, -2 10, 0 0 Z" fill="url(#m-body)"></path>
      <circle cx="48" cy="-12" r="6" fill="#00E6FF"></circle>
      <circle cx="48" cy="-12" r="10" fill="#00E6FF" opacity="0.25"></circle>
    </g>
  </g>
</svg>