<svg xmlns="http://www.w3.org/2000/svg" viewBox="0 0 240 280" role="img" aria-label="Compañero METLY · Analizando">
  <defs>
    <linearGradient id="m2-body" x1="0" y1="0" x2="0" y2="1">
      <stop offset="0%" stop-color="#5840E6"></stop>
      <stop offset="100%" stop-color="#2A1050"></stop>
    </linearGradient>
    <linearGradient id="m2-belly" x1="0" y1="0" x2="0" y2="1">
      <stop offset="0%" stop-color="#A594FF"></stop>
      <stop offset="100%" stop-color="#7B61FF"></stop>
    </linearGradient>
    <radialGradient id="m2-core" cx="50%" cy="50%" r="50%">
      <stop offset="0%" stop-color="#FFFFFF"></stop>
      <stop offset="40%" stop-color="#6FF1FF"></stop>
      <stop offset="100%" stop-color="#00E6FF"></stop>
    </radialGradient>
    <radialGradient id="m2-glow" cx="50%" cy="50%" r="50%">
      <stop offset="0%" stop-color="#00E6FF" stop-opacity="0.55"></stop>
      <stop offset="100%" stop-color="#00E6FF" stop-opacity="0"></stop>
    </radialGradient>
  </defs>

  <ellipse cx="120" cy="260" rx="60" ry="6" fill="#1A0033" opacity="0.18"></ellipse>
  <circle cx="120" cy="160" r="80" fill="url(#m2-glow)"></circle>

  <g transform="rotate(-6 120 160)">
    <path d="M120 70 C 170 70, 200 110, 200 160 C 200 210, 170 240, 120 240 C 70 240, 40 210, 40 160 C 40 110, 70 70, 120 70 Z" fill="url(#m2-body)"></path>
    <path d="M120 130 C 150 130, 170 150, 170 175 C 170 210, 145 230, 120 230 C 95 230, 70 210, 70 175 C 70 150, 90 130, 120 130 Z" fill="url(#m2-belly)" opacity="0.55"></path>

    <g transform="translate(120,170)">
      <circle r="22" fill="#1A0033"></circle>
      <circle r="16" fill="url(#m2-core)"></circle>
      <circle r="6" fill="#FFFFFF"></circle>
      <circle r="22" fill="none" stroke="#00E6FF" stroke-width="1" opacity="0.5"></circle>
      <circle r="30" fill="none" stroke="#00E6FF" stroke-width="1" opacity="0.25"></circle>
    </g>

    <g fill="#FAF8FF">
      <ellipse cx="100" cy="138" rx="6" ry="3"></ellipse>
      <ellipse cx="140" cy="138" rx="6" ry="3"></ellipse>
    </g>

    <path d="M108 156 Q120 160 132 156" stroke="#00E6FF" stroke-width="2.5" fill="none" stroke-linecap="round"></path>

    <g transform="translate(35,170)">
      <path d="M0 0 C 5 -22, 35 -22, 38 -8 C 40 8, 25 18, 10 14 C 0 12, -4 6, 0 0 Z" fill="url(#m2-body)"></path>
      <rect x="-2" y="-12" width="22" height="14" rx="3" fill="#1A0033"></rect>
      <rect x="0" y="-10" width="18" height="10" rx="1" fill="#00E6FF" opacity="0.7"></rect>
      <line x1="2" y1="-7" x2="14" y2="-7" stroke="#1A0033" stroke-width="1"></line>
      <line x1="2" y1="-4" x2="10" y2="-4" stroke="#1A0033" stroke-width="1"></line>
    </g>

    <g transform="translate(190,148)">
      <path d="M0 0 C 18 -28, 50 -22, 50 -2 C 50 16, 30 28, 14 20 C 4 16, -4 10, 0 0 Z" fill="url(#m2-body)"></path>
      <circle cx="44" cy="-14" r="4" fill="#FAF8FF"></circle>
      <line x1="44" y1="-14" x2="44" y2="-32" stroke="#1A0033" stroke-width="1.5"></line>
    </g>
  </g>
</svg>